M48
INCH
T01C0.1250
T02C0.0400
%
T01
X+002000Y+020000
T02
X+003000Y+018000
X+002000Y+018000
X+003000Y+017000
X+002000Y+017000
X+003000Y+016000
X+002000Y+016000
X+003000Y+015000
X+002000Y+015000
X+003000Y+014000
X+002000Y+014000
X+002000Y+001000
X+003000Y+001000
X+002000Y+002000
X+003000Y+002000
X+002000Y+003000
X+003000Y+003000
X+002000Y+004000
X+003000Y+004000
X+002000Y+005000
X+003000Y+005000
X+010990Y+020010
X+009990Y+020010
X+008990Y+020010
X+007990Y+020010
X+006990Y+020010
X+005990Y+020010
X+004990Y+020010
X+003990Y+020010
X+013000Y+001030
X+012000Y+001030
X+011000Y+001030
X+010000Y+001030
X+009000Y+001030
X+008000Y+001030
X+007000Y+001030
X+006000Y+001030
X+009356Y+013861
X+008456Y+013861
X+007556Y+013861
X+004669Y+017989
X+005569Y+017989
X+006469Y+017989
X+007200Y+011350
X+008200Y+011350
X+009200Y+011350
X+007250Y+006150
X+008250Y+006150
X+009250Y+006150
X+008910Y+018030
X+007910Y+018030
X+011080Y+010780
X+011080Y+009780
X+011080Y+008780
X+011080Y+007780
X+011080Y+006780
M30
